<?xml version="1.0" encoding="UTF-8"?>
<svg width="109px" height="180px" viewBox="0 0 109 180" version="1.1" xmlns="http://www.w3.org/2000/svg" xmlns:xlink="http://www.w3.org/1999/xlink">
    <title>javascript-jar</title>
    <g id="Page-1" stroke="none" stroke-width="1" fill="none" fill-rule="evenodd">
        <g id="Artboard" transform="translate(-36.000000, -414.000000)">
            <g id="javascript-jar" transform="translate(36.000000, 414.000000)">
                <g id="jar" transform="translate(54.500000, 90.000000) scale(-1, 1) translate(-54.500000, -90.000000) " fill="#000000" fill-rule="nonzero">
                    <path d="M108.950801,155.464968 L108.950801,48.0382166 C108.950801,44.2547771 108.1536,41.0063694 106.59716,38.4458599 C106.559198,38.4076433 106.521236,38.3312102 106.483274,38.2929936 C105.344416,36.6496815 104.129633,35.1210191 102.952813,33.5923567 C99.8399327,29.5796178 96.8789005,25.7579618 95.8539278,21.5541401 L95.8539278,21.4012739 L97.4103678,21.4012739 C99.9158566,21.4012739 102.687079,19.2611465 102.687079,16.1656051 L102.687079,5.23566879 C102.687079,2.14012739 99.9158566,0 97.4103678,0 L11.6163572,0 C8.61736301,0 6.33964592,2.25477707 6.33964592,5.23566879 L6.33964592,16.1656051 C6.33964592,19.1464968 8.61736301,21.4012739 11.6163572,21.4012739 L12.6033679,21.4012739 L12.6033679,21.7452229 C12.2617104,25.9490446 9.30067814,29.5796178 6.18779811,33.4394904 C4.93505371,34.9681529 3.64434735,36.5732484 2.50548881,38.2165605 C0,41.3503185 0,44.9044586 0,48.0382166 L0,155.579618 C0,164.292994 4.06192882,172.280255 10.8571182,176.942675 C13.4005689,178.929936 16.6273348,180 19.9679865,180 C20.6133397,180 21.2586929,179.961783 21.942008,179.88535 L87.1606409,179.88535 C92.1336565,179.88535 96.4233571,178.509554 99.612161,175.910828 C106.217541,170.484076 109.444306,163.414013 108.950801,155.464968 Z M12.0719006,15.6687898 L12.0719006,5.69426752 L96.9927863,5.69426752 L96.9927863,15.6687898 L12.0719006,15.6687898 Z M96.0437376,171.401274 L96.0437376,171.401274 C93.310477,173.617834 89.7420536,174.076433 87.1986028,174.076433 L21.7901602,174.076433 C21.6762744,174.076433 21.5244266,174.076433 21.4105407,174.11465 C18.8670899,174.458599 16.2477153,173.808917 14.3496177,172.318471 C14.3116558,172.280255 14.2357319,172.242038 14.1977699,172.203822 C8.84513472,168.573248 5.77021664,162.496815 5.77021664,155.541401 L5.77021664,48 C5.77021664,45.0955414 5.84614055,43.2229299 7.060923,41.7324841 C7.09888495,41.656051 7.17480885,41.6178344 7.2127708,41.5414013 C8.19978155,40.0509554 9.414564,38.5987261 10.6673084,37.0700637 C14.083884,32.866242 17.9560031,28.1273885 18.3735846,22.0509554 C18.3735846,21.9745223 18.3735846,21.9363057 18.3735846,21.8598726 L18.3735846,21.4012739 L90.197597,21.4012739 L90.197597,21.8598726 C90.197597,22.0509554 90.235559,22.2802548 90.2735209,22.4713376 C91.4883034,28.0509554 95.0567268,32.6751592 98.5112644,37.1082803 C99.612161,38.522293 100.75102,40.0127389 101.813954,41.5031847 C102.800965,43.1464968 103.29447,45.3248408 103.29447,48 L103.29447,155.541401 C103.29447,155.617834 103.29447,155.656051 103.29447,155.732484 C103.67409,161.88535 101.244525,167.159236 96.0437376,171.401274 Z" id="Shape"></path>
                    <path d="M93.233038,98 C91.7204321,98 90.466076,99.3084112 90.466076,100.886201 L90.466076,144.025289 C90.466076,149.06652 89.0272557,153.568994 86.3340793,157.109401 L81.6117975,163.343595 C80.652584,164.575041 80.8370481,166.383727 82.0545114,167.384277 C82.5341181,167.807587 83.1612962,168 83.7515814,168 C84.5632236,168 85.3748658,167.615173 85.9282582,166.922485 L90.6874329,160.68829 C94.1553587,156.147334 96,150.374931 96,144.025289 L96,100.886201 C96,99.3084112 94.7456439,98 93.233038,98 Z" id="Path"></path>
                </g>
                <rect id="Rectangle" stroke="#000000" stroke-width="5" fill="#000000" stroke-linejoin="round" x="20" y="46" width="70" height="46"></rect>
                <g id="node-js" transform="translate(34.000000, 45.000000)" fill="#83CD29" fill-rule="nonzero">
                    <path d="M40.3400187,10.4141698 L23.0309159,0.46176366 C21.9393084,-0.15392122 20.5179813,-0.15392122 19.4177383,0.46176366 L1.92375701,10.4141698 C0.797214953,11.0558969 0,12.2620018 0,13.5520638 L0,33.4304452 C0,34.7205071 0.818018692,35.9270007 1.94456075,36.572226 L6.56652336,39.1717844 C8.77564486,40.249233 9.55637383,40.249233 10.5616262,40.249233 C13.8325234,40.249233 15.7009346,38.2906243 15.7009346,34.8744283 L15.7009346,15.2494728 C15.7009346,14.9723369 15.5553084,14.5599368 15.2805421,14.5599368 L13.0733832,14.5599368 C12.7939065,14.5599368 12.1682243,14.9723369 12.1682243,15.2490841 L12.1682243,34.8740396 C12.1682243,36.3883757 10.784972,37.8953266 8.19981308,36.6153706 L3.42398131,33.889488 C3.2575514,33.8000893 3.14018692,33.6201259 3.14018692,33.4304452 L3.14018692,13.5520638 C3.14018692,13.3647152 3.35803738,13.1765893 3.52564486,13.0805829 L20.9631028,3.14527907 C21.126,3.05393693 21.3654393,3.05393693 21.5279439,3.14527907 L38.7526542,13.0782507 C38.917514,13.1765893 38.8594206,13.3588849 38.8594206,13.5520638 L38.8594206,33.4304452 C38.8594206,33.6201259 38.9312523,33.8047536 38.7683551,33.8960957 L21.4635701,43.8372299 C21.3151963,43.9254625 21.1311028,43.9254625 20.9685981,43.8372299 L16.5303364,41.2139614 C16.396486,41.1370008 16.237514,41.1094038 16.1091589,41.1805341 C14.8742804,41.8735683 14.6466168,41.9656878 13.4882804,42.3633176 C13.2033084,42.4616561 12.7829159,42.632291 13.649215,43.1131005 L19.4577757,46.5156923 C20.0139813,46.8344181 20.6459439,47 21.2818318,47 C21.9263551,47 22.5575327,46.8344181 23.1137383,46.5156923 L40.3396262,36.572226 C41.4661682,35.9223364 42,34.7205071 42,33.4304452 L42,13.5520638 C42,12.2620018 41.4661682,11.0590064 40.3400187,10.4141698 L40.3400187,10.4141698 Z M26.6562617,30.2805018 C22.0535327,30.2805018 21.0396449,29.0230898 20.7016822,26.7566387 C20.6624299,26.5125415 20.453215,26.2206353 20.2023925,26.2206353 L17.9528411,26.2206353 C17.6745421,26.2206353 17.4508037,26.5549087 17.4508037,26.8293238 C17.4508037,29.7312829 19.0440561,33.2473722 26.6566542,33.2473722 C32.1672897,33.2473722 35.3267103,31.1270685 35.3267103,27.3746558 C35.3267103,23.6541156 32.7882617,22.6777264 27.4440561,21.9773071 C22.0421495,21.2702801 21.4934019,20.913074 21.4934019,19.6599376 C21.4934019,18.6267998 21.9581495,17.2488939 25.9579626,17.2488939 C29.5318879,17.2488939 30.8491963,18.008394 31.391271,20.3937843 C31.4375888,20.6180584 31.6444486,20.778976 31.878,20.778976 L34.1365794,20.778976 C34.2755327,20.778976 34.4082056,20.7233933 34.5055514,20.6250548 C34.599757,20.5193311 34.6496075,20.3867878 34.6370467,20.2445273 C34.2873084,16.1368519 31.5314019,14.2225539 25.9575701,14.2225539 C20.9996075,14.2225539 18.0419439,16.2958261 18.0419439,19.771103 C18.0419439,23.5406181 20.9846916,24.5823072 25.7440374,25.0483464 C31.4375888,25.6010635 31.8803551,26.4250862 31.8803551,27.5340186 C31.8803551,29.4599773 30.3188972,30.2805018 26.6562617,30.2805018 Z" id="Shape"></path>
                </g>
            </g>
        </g>
    </g>
</svg>